P3
# Created by Ben and Smita's Image Processor
3 3
255

103
92
72

99
88
69

97
86
67

99
88
69

94
84
65

90
80
62

97
86
67

90
80
62

81
72
56
