P3
# Created by Ben and Smita's Image Processor
3 3
255
120
120
120
117
117
117
115
115
115
117
117
117
113
113
113
110
110
110
115
115
115
110
110
110
103
103
103
